<svg width="22" height="22" viewBox="0 0 22 22" fill="none" xmlns="http://www.w3.org/2000/svg">
<path fill-rule="evenodd" clip-rule="evenodd" d="M12.7929 12.2639C11.361 13.6958 9.03939 13.6958 7.60747 12.2639C6.17555 10.832 6.17555 8.51036 7.60747 7.07844C9.03939 5.64652 11.361 5.64652 12.7929 7.07844C14.2248 8.51036 14.2248 10.832 12.7929 12.2639ZM13.2333 13.6469C11.2731 15.1462 8.45749 14.9995 6.66466 13.2067C4.71204 11.2541 4.71204 8.08825 6.66466 6.13563C8.61728 4.18301 11.7831 4.18301 13.7357 6.13563C15.5285 7.92838 15.6753 10.7438 14.1761 12.704L17.7428 16.2707L16.8 17.2135L13.2333 13.6469Z" fill="white"/>
</svg>
